#!OML:ASF \\Waltz\H\Terrain\Patient Classification 1\Animal1\Tuesday\Animal1.ASF
:FULLY-SPECIFIED
:DEGREES
3975
root 13.4071 14.8974 -13.9273 24.4131 -38.4542 2.05323
lowerback 33.8284 -6.9302 13.7381
upperback 17.5661 -6.06024 -10.7747
thorax -0.327149 -1.89302 -17.215
lowerneck -7.2821 -2.65836 -0.824749
upperneck -11.3659 -2.18229 23.6228
head -1.69789 -1.83794 7.45543
rclavicle -1.43125e-014 -2.38542e-014
rhumerus -58.955 31.0991 -100.663
rradius 24.7438
rwrist -18.5842
rhand -42.8854 388.273
rfingers 7.12502
rthumb -15.748 358.894
lclavicle -1.43125e-014 -2.38542e-014
lhumerus -79.9831 -38.8051 84.4196
lradius 34.5518
lwrist -35.8309
lhand -2.53814 -322.188
lfingers 7.12502
lthumb 23.1572 786.44
rfemur -70.3492 5.08754 22.9477
rtibia 51.1335
rfoot -9.97535 -9.65717
rtoes -21.9576
lfemur -51.0443 -6.42246 -28.2487
ltibia 57.9194
lfoot -27.6781 13.5615
ltoes -4.65079
3976
root 13.421 14.9297 -13.9881 24.752 -38.6877 1.7862
lowerback 33.8035 -6.72985 13.5853
upperback 17.4643 -5.85451 -10.6817
thorax -0.335801 -1.81175 -17.1009
lowerneck -7.37795 -2.67622 -0.837642
upperneck -11.1991 -2.25092 23.4974
head -1.62701 -1.84574 7.4082
rclavicle -2.14687e-014 -4.7112e-014
rhumerus -53.7855 26.5882 -94.1733
rradius 21.4062
rwrist -16.2622
rhand -51.6118 396.255
rfingers 7.12502
rthumb -24.1353 367.753
lclavicle -2.14687e-014 -4.7112e-014
lhumerus -75.8893 -38.6252 80.1951
lradius 31.9805
lwrist -36.428
lhand -6.85997 -317.089
lfingers 7.12502
lthumb 19.0055 792.002
rfemur -70.4043 4.90881 23.3279
rtibia 50.7811
rfoot -10.7119 -8.67972
rtoes -16.9349
lfemur -51.4328 -6.29929 -27.8683
ltibia 57.754
lfoot -27.3868 13.3827
ltoes -3.85414
3977
root 13.4423 14.9422 -14.0556 25.2939 -38.6078 1.7521
lowerback 33.3858 -6.37605 13.6674
upperback 17.2261 -5.4194 -10.513
thorax -0.276788 -1.60377 -17.1473
lowerneck -6.88399 -2.83803 -0.351762
upperneck -11.384 -2.43914 23.3005
head -1.7618 -1.99687 7.2635
rclavicle -1.02573e-013 2.22639e-014
rhumerus -49.1725 19.7719 -87.4513
rradius 17.7844
rwrist -12.0571
rhand -52.3274 399.864
rfingers 7.12502
rthumb -24.8213 371.455
lclavicle -1.02573e-013 2.22639e-014
lhumerus -72.0154 -38.9755 76.3642
lradius 29.5016
lwrist -36.3378
lhand -10.2951 -310.125
lfingers 7.12502
lthumb 15.6995 799.258
rfemur -71.0086 4.61146 23.3447
rtibia 50.7133
rfoot -11.166 -7.97875
rtoes -14.0793
lfemur -52.2846 -6.50194 -27.5324
ltibia 57.6795
lfoot -26.988 13.3628
ltoes -4.19037
3978
root 13.4551 14.9518 -14.1326 25.8668 -38.7913 1.28614
lowerback 33.1957 -6.37334 13.7842
upperback 17.1822 -5.42031 -10.6162
thorax -0.28062 -1.60132 -17.3504
lowerneck -6.94849 -2.72224 -0.524469
upperneck -11.3447 -2.26882 23.5169
head -1.74952 -1.90586 7.3682
rclavicle 3.33958e-014 3.8763e-014
rhumerus -44.5373 12.3641 -80.7387
rradius 13.9696
rwrist -5.35546
rhand -50.7145 400.782
rfingers 7.12502
rthumb -23.2747 372.169
lclavicle 3.33958e-014 3.8763e-014
lhumerus -67.5828 -37.4197 71.1629
lradius 27.2095
lwrist -37.111
lhand -12.4117 -302.926
lfingers 7.12502
lthumb 13.6602 806.605
rfemur -71.2882 4.94319 23.3712
rtibia 50.7054
rfoot -11.0474 -8.66484
rtoes -13.8064
lfemur -52.9472 -6.16391 -27.0218
ltibia 57.7428
lfoot -26.9024 13.2003
ltoes -4.20595
3979
root 13.4772 14.9598 -14.192 25.8998 -38.0712 1.3182
lowerback 32.9074 -7.035 14.5763
upperback 17.3053 -6.05546 -10.7696
thorax -0.331488 -1.86311 -17.7478
lowerneck -7.13902 -2.57017 -0.848971
upperneck -11.159 -2.07581 23.7444
head -1.67197 -1.77628 7.49893
rclavicle -8.74653e-015 -3.12092e-014
rhumerus -41.2687 4.14056 -74.2364
rradius 11.0667
rwrist 2.96577
rhand -51.7432 408.021
rfingers 7.12502
rthumb -24.2614 379.536
lclavicle -8.74653e-015 -3.12092e-014
lhumerus -63.4098 -35.0103 65.8657
lradius 25.2984
lwrist -38.5602
lhand -14.8046 -296.979
lfingers 7.12502
lthumb 11.3532 627.306
rfemur -71.4201 4.56227 22.9897
rtibia 51.0484
rfoot -10.9457 -10.3779
rtoes -10.8881
lfemur -53.3434 -6.68481 -26.6319
ltibia 57.7327
lfoot -26.6186 12.9165
ltoes -3.63316
3980
root 13.4825 14.9633 -14.2633 25.8096 -38.4483 1.26357
lowerback 32.5657 -8.13125 14.7358
upperback 17.9076 -7.50545 -11.5522
thorax -0.243005 -2.52688 -18.2188
lowerneck -8.69641 -2.03906 -3.77658
upperneck -10.3677 -1.28773 25.6013
head -1.16629 -1.15696 8.65352
rclavicle -1.11319e-013 5.98342e-014
rhumerus -37.8635 5.56609 -74.9776
rradius 9.4111
rwrist 1.92378
rhand -52.697 415.059
rfingers 7.12502
rthumb -25.1755 386.7
lclavicle -1.11319e-013 5.98342e-014
lhumerus -59.5533 -29.2662 59.8339
lradius 23.5203
lwrist -41.0422
lhand -16.7703 -291.117
lfingers 7.12502
lthumb 9.45695 621.35
rfemur -71.4039 4.92095 22.4822
rtibia 51.5254
rfoot -11.1347 -11.6349
rtoes -7.38847
lfemur -53.4847 -6.14254 -26.6485
ltibia 57.7218
lfoot -26.3992 12.8284
ltoes -3.99044
3981
root 13.4854 14.9736 -14.3209 25.2492 -38.4281 1.79247
lowerback 32.7992 -7.91296 14.4314
upperback 17.8708 -7.28304 -11.558
thorax -0.265675 -2.43174 -18.128
lowerneck -8.29669 -2.18622 -3.61699
upperneck -10.5252 -1.44701 25.782
head -1.25455 -1.28566 8.68705
rclavicle 3.26007e-014 -8.34896e-015
rhumerus -37.2398 4.08676 -74.9942
rradius 8.00019
rwrist 1.77241
rhand -53.6686 420.45
rfingers 7.12502
rthumb -26.106 392.225
lclavicle 3.26007e-014 -8.34896e-015
lhumerus -55.4386 -26.555 54.3749
lradius 21.8201
lwrist -44.6017
lhand -18.2768 -285.934
lfingers 7.12502
lthumb 8.00315 616.105
rfemur -71.2907 4.70425 21.627
rtibia 52.2777
rfoot -11.5047 -12.9226
rtoes -4.84594
lfemur -53.2948 -6.13582 -26.9918
ltibia 57.5351
lfoot -26.1289 12.7714
ltoes -4.8359
3982
root 13.4857 14.9828 -14.3749 24.9849 -38.5607 2.09805
lowerback 33.1667 -6.8879 13.7804
upperback 17.4924 -6.10374 -11.1383
thorax -0.264721 -1.9049 -17.7099
lowerneck -7.08228 -2.53334 -1.41256
upperneck -11.154 -1.94913 24.4201
head -1.6642 -1.71395 7.83023
rclavicle -6.36111e-015 -4.41302e-014
rhumerus -37.9732 1.43313 -74.6062
rradius 7.22794
rwrist 2.44085
rhand -54.3534 423.269
rfingers 7.12502
rthumb -26.7615 395.142
lclavicle -6.36111e-015 -4.41302e-014
lhumerus -50.9842 -24.3302 49.085
lradius 20.3006
lwrist -48.9269
lhand -22.3015 -284.899
lfingers 7.12502
lthumb 4.1176 614.959
rfemur -71.3739 4.77934 20.7505
rtibia 53.0849
rfoot -11.0509 -14.8788
rtoes -5.2513
lfemur -53.295 -6.0551 -27.1612
ltibia 57.3747
lfoot -26.0638 12.5923
ltoes -4.02978
3983
root 13.4937 14.9878 -14.4249 24.7396 -38.337 2.19733
lowerback 33.3451 -6.8249 13.8055
upperback 17.4167 -5.98302 -11.0587
thorax -0.35457 -1.85308 -17.6603
lowerneck -6.96061 -2.54057 -0.261993
upperneck -11.0531 -2.08481 23.4846
head -1.69297 -1.79747 7.3079
rclavicle -2.78299e-014 6.67916e-014
rhumerus -38.0967 0.268239 -74.5091
rradius 7.18456
rwrist 3.62511
rhand -54.1535 423.975
rfingers 7.12502
rthumb -26.5703 395.818
lclavicle -2.78299e-014 6.67916e-014
lhumerus -48.5215 -21.3338 45.5687
lradius 19.4373
lwrist -51.2546
lhand -21.7152 -282.452
lfingers 7.12502
lthumb 4.68382 612.523
rfemur -71.2931 4.56685 20.1711
rtibia 53.9222
rfoot -10.2803 -16.7434
rtoes -6.43864
lfemur -53.288 -6.21705 -27.0403
ltibia 57.2776
lfoot -26.2092 12.0611
ltoes -1.64878
